<?xml version="1.0" standalone="no"?>
<!DOCTYPE svg PUBLIC "-//W3C//DTD SVG 20010904//EN"
 "http://www.w3.org/TR/2001/REC-SVG-20010904/DTD/svg10.dtd">
<svg version="1.0" xmlns="http://www.w3.org/2000/svg"
 width="256.000000pt" height="256.000000pt" viewBox="0 0 256.000000 256.000000"
 preserveAspectRatio="xMidYMid meet">

<g transform="translate(0.000000,256.000000) scale(0.100000,-0.100000)"
fill="#000000" stroke="none">
<path d="M1563 2508 c-13 -6 -24 -15 -24 -20 -10 -63 -22 -72 -584 -415 l-552
-337 24 -24 c13 -13 39 -30 58 -38 19 -7 44 -24 56 -36 12 -13 19 -17 15 -11
-5 9 -2 11 8 7 9 -3 13 -10 10 -15 -3 -5 -2 -9 3 -10 30 -3 48 -9 51 -19 2 -5
8 -8 13 -4 5 3 9 0 9 -5 0 -6 6 -11 13 -11 6 0 25 -11 41 -25 16 -13 32 -22
36 -20 4 3 11 -2 14 -10 3 -8 9 -15 13 -14 17 3 52 -14 47 -22 -3 -5 4 -9 16
-9 13 0 19 -4 14 -12 -4 -6 -3 -8 4 -4 6 3 17 0 25 -8 8 -8 17 -12 21 -9 3 4
6 0 6 -7 0 -7 3 -11 6 -7 3 3 15 -3 27 -14 11 -10 27 -19 34 -19 7 0 13 -4 13
-10 0 -5 3 -9 8 -8 14 3 72 -28 65 -35 -3 -4 3 -7 13 -7 11 0 30 -9 42 -20 12
-11 28 -20 36 -20 7 0 24 -11 37 -24 13 -13 28 -22 35 -19 6 2 14 -3 18 -12 3
-9 10 -14 14 -11 5 3 18 -4 30 -14 12 -11 26 -20 33 -20 6 0 18 -8 26 -17 9
-11 11 -12 7 -3 -6 11 -2 10 13 -3 11 -9 25 -17 32 -17 7 0 9 -4 6 -10 -3 -5
-1 -11 4 -11 22 -3 27 -5 78 -33 l51 -28 2 -195 c0 -107 1 -198 2 -202 2 -22
-7 -30 -44 -36 -24 -4 -72 -22 -108 -40 -36 -18 -76 -36 -90 -40 -96 -28 -218
-118 -221 -163 -4 -69 3 -108 26 -147 29 -50 40 -59 57 -49 17 11 58 14 58 5
0 -4 10 -7 22 -8 11 -1 24 -6 27 -10 3 -4 12 -8 19 -9 6 -1 21 -2 32 -2 11 -1
20 -7 20 -13 0 -5 -4 -7 -10 -4 -17 10 -70 14 -70 4 0 -5 8 -8 18 -7 41 3 49
-2 44 -27 -5 -26 9 -35 73 -48 l30 -6 -28 13 c-16 7 -28 17 -28 22 0 5 -7 16
-15 26 -23 25 -6 27 86 11 47 -8 108 -13 137 -11 28 2 49 0 46 -4 -2 -5 1 -8
6 -8 6 0 11 6 11 13 0 9 2 9 8 0 16 -26 299 14 374 53 36 19 47 18 22 -2 -10
-8 -13 -13 -6 -9 7 4 12 0 12 -10 0 -10 -5 -13 -12 -9 -6 4 -8 3 -4 -4 3 -6 2
-13 -4 -17 -9 -6 -15 9 -10 30 1 5 -8 1 -19 -9 -12 -11 -19 -22 -16 -25 4 -3
10 1 15 9 6 10 10 11 10 3 0 -7 -9 -17 -19 -22 -15 -9 -20 -7 -24 9 -5 21 -27
28 -27 9 0 -5 4 -8 9 -5 5 3 11 -2 13 -12 3 -11 -1 -18 -11 -19 -9 -1 -45 -10
-80 -21 -42 -12 -59 -21 -48 -25 9 -3 19 -2 22 4 4 5 11 7 16 3 5 -3 17 0 26
8 9 7 18 11 20 9 7 -6 73 10 73 19 0 4 9 6 20 3 12 -3 20 0 20 8 0 7 3 10 6 6
3 -3 14 2 25 11 11 9 21 15 23 12 2 -3 10 1 19 9 9 7 14 18 10 24 -3 5 -1 7 4
4 6 -4 18 2 28 13 10 11 15 20 11 20 -4 0 -1 10 6 23 16 29 23 111 9 103 -7
-4 -9 -1 -5 8 6 15 -10 52 -30 71 -58 54 -91 76 -107 72 -10 -3 -17 0 -16 5 1
5 -28 22 -65 37 -37 15 -76 35 -85 43 -10 9 -47 26 -83 38 -36 13 -69 27 -74
31 -11 10 -14 321 -3 374 4 22 8 46 9 53 1 6 5 12 9 12 4 0 6 9 4 20 -2 11 0
18 6 15 5 -4 9 4 10 17 0 13 3 32 5 43 3 11 6 43 8 70 1 28 4 55 7 60 2 6 4
33 4 60 -1 28 4 53 10 57 6 5 5 8 -4 8 -9 0 -10 4 -4 13 6 6 10 53 9 102 -2
50 0 94 3 100 8 15 8 167 0 190 -3 11 -3 30 2 43 6 15 5 21 -1 17 -6 -4 -7 2
-2 15 4 11 5 53 1 93 -4 40 -5 80 -3 90 1 9 -2 17 -9 17 -7 0 -8 3 -1 10 7 7
8 28 4 54 -4 24 -5 51 -4 60 1 9 -1 16 -4 16 -4 0 -7 17 -6 37 2 121 -82 273
-121 220 -9 -13 -13 -13 -21 -2 -7 10 -14 11 -31 3z m52 -356 c-2 -2 3 -18 11
-34 9 -17 11 -27 5 -24 -7 5 -11 -3 -11 -19 0 -14 4 -24 8 -21 4 2 8 -11 8
-29 0 -18 -4 -31 -8 -29 -4 3 -8 -11 -8 -31 0 -20 4 -34 9 -30 6 3 8 14 6 25
-2 12 0 18 5 15 4 -3 7 -13 5 -23 -1 -9 3 -24 9 -32 9 -13 9 -13 -5 -3 -13 11
-16 9 -16 -17 0 -16 4 -27 8 -25 4 3 6 -3 4 -12 -1 -10 2 -27 7 -38 8 -18 8
-19 -5 -3 -15 19 -32 13 -19 -6 4 -6 7 -19 8 -28 3 -31 4 -33 14 -18 7 12 9
10 7 -7 0 -12 -4 -21 -8 -20 -4 1 -8 -2 -9 -8 -1 -5 -6 -18 -11 -27 -10 -18
-3 -22 31 -19 11 1 10 -1 -3 -10 -13 -8 -15 -14 -7 -23 7 -10 6 -17 -5 -26 -8
-7 -15 -17 -15 -23 0 -5 9 -2 19 7 18 17 19 16 16 -19 -1 -19 -5 -38 -8 -41
-4 -4 -2 -15 3 -25 7 -12 7 -20 0 -24 -8 -5 -8 -11 0 -20 7 -9 6 -16 -5 -25
-8 -7 -12 -17 -8 -24 11 -17 12 -35 2 -42 -14 -8 -11 -26 4 -18 6 4 4 -2 -6
-13 -15 -17 -15 -22 -3 -32 15 -13 16 -28 1 -51 -14 -22 -15 -111 -1 -103 6 4
6 0 -1 -8 -7 -9 -15 -26 -17 -40 -3 -13 -5 -26 -5 -28 -1 -2 -7 2 -14 8 -8 6
-17 9 -20 6 -4 -3 -5 -2 -2 2 3 3 -1 13 -8 21 -8 11 -8 14 0 9 6 -4 14 -3 17
2 4 5 1 13 -5 16 -5 4 -8 13 -5 20 2 7 -3 23 -12 36 -14 21 -14 23 0 11 13
-10 17 -10 22 3 3 9 2 13 -3 10 -5 -3 -13 0 -17 6 -4 8 -3 9 4 5 7 -4 12 -3
12 3 0 5 -6 12 -12 14 -8 4 -9 6 -2 6 19 2 37 -27 28 -46 -11 -25 -13 -53 -3
-47 5 2 7 -11 5 -30 -1 -19 1 -33 6 -30 4 3 8 15 7 27 0 12 2 34 5 50 2 15 0
25 -5 21 -5 -3 -4 7 1 21 6 17 7 33 1 43 -6 10 -6 24 0 37 10 19 10 19 -5 1
-11 -14 -13 -24 -5 -38 6 -11 8 -22 6 -25 -3 -3 -13 9 -22 26 -10 20 -20 29
-28 24 -7 -4 -7 0 2 10 7 9 11 17 8 17 -3 0 0 14 7 31 14 33 10 73 -5 63 -14
-9 -10 1 10 25 11 12 22 18 25 12 4 -5 -2 -14 -11 -20 -10 -6 -13 -11 -6 -11
13 0 6 -81 -11 -108 -12 -19 2 -14 26 10 16 16 17 20 5 15 -19 -7 -21 1 -7 23
8 12 10 12 10 1 0 -8 2 -12 5 -9 3 3 1 17 -4 31 -6 15 -6 29 -2 32 10 6 9 24
-1 40 -4 6 -3 17 3 25 12 20 11 40 -1 40 -5 0 -7 -6 -5 -12 7 -20 -10 -40 -30
-36 -10 1 -19 11 -21 20 -1 11 3 15 14 11 11 -5 13 -3 6 8 -15 24 -13 38 4 32
14 -6 14 -4 -1 17 -9 14 -17 29 -17 35 1 5 8 -2 16 -17 8 -16 17 -28 19 -28 7
0 -14 52 -27 67 -6 7 -7 13 -3 13 4 0 2 6 -4 14 -8 9 -8 16 -2 20 10 6 8 37
-4 55 -3 5 -1 13 5 16 6 4 10 3 9 -2 -3 -18 1 -34 9 -29 7 4 8 56 2 64 -2 1
-3 5 -4 10 -1 4 -5 13 -10 21 -6 9 -5 12 2 7 20 -12 21 10 2 42 -11 18 -17 32
-15 32 3 0 14 -15 25 -32 11 -18 20 -26 20 -18 0 9 -7 26 -16 38 -9 13 -13 26
-10 29 3 4 6 1 6 -5 0 -7 3 -12 8 -12 4 0 8 23 10 51 2 32 -1 49 -7 45 -5 -4
-8 -17 -5 -31 2 -13 1 -26 -4 -29 -11 -6 -7 43 5 74 8 19 7 29 -4 42 -11 12
-11 18 -2 24 7 4 10 3 5 -4 -3 -6 -2 -13 4 -17 6 -4 10 5 10 20 0 17 -4 24
-12 19 -7 -4 -8 -3 -4 5 4 6 12 9 17 6 14 -9 11 8 -5 31 -13 18 -13 21 0 21 8
0 12 -2 9 -5z m-208 -327 c0 -8 -4 -12 -9 -9 -5 3 -6 10 -3 15 9 13 12 11 12
-6z m58 -55 c-1 -23 2 -43 7 -46 4 -3 3 -14 -2 -25 -10 -17 -7 -22 11 -21 3 0
5 -10 5 -23 0 -13 -4 -21 -8 -19 -10 6 -11 -10 -1 -20 11 -10 12 -37 2 -30 -5
3 -9 3 -9 0 0 -2 -3 -13 -7 -23 -6 -15 -4 -16 8 -6 13 10 15 8 15 -12 0 -23
-1 -23 -18 -8 -12 11 -16 23 -12 37 6 18 5 19 -9 7 -17 -14 -15 -23 11 -53 11
-13 12 -21 3 -31 -6 -8 -8 -17 -4 -21 4 -4 12 3 18 15 10 17 11 12 11 -34 -1
-30 -4 -53 -9 -50 -4 2 -5 18 -2 35 5 26 4 29 -9 19 -10 -8 -12 -20 -7 -39 4
-15 6 -34 3 -42 -4 -12 -2 -13 10 -3 12 11 14 6 14 -36 -1 -29 -8 -57 -19 -72
l-18 -24 13 25 c6 14 13 38 14 53 2 23 0 26 -11 17 -8 -6 -11 -18 -9 -25 3 -7
0 -24 -7 -37 -7 -13 -12 -27 -10 -33 1 -5 0 -7 -4 -3 -4 3 -7 10 -7 15 1 4 -7
16 -15 25 -12 14 -19 15 -29 7 -8 -6 -11 -16 -7 -22 4 -6 1 -7 -6 -3 -9 6 -9
12 3 25 9 10 13 20 10 24 -4 3 -15 -4 -26 -16 -20 -22 -20 -22 -1 8 11 17 18
36 17 43 -1 6 -2 17 -3 23 0 5 -5 8 -10 4 -6 -3 -8 -14 -6 -25 3 -13 0 -18 -7
-14 -7 5 -9 2 -5 -9 3 -9 3 -19 -2 -21 -4 -3 -8 9 -7 27 1 18 -3 32 -9 32 -5
0 -9 -4 -7 -10 2 -5 0 -7 -4 -3 -4 4 -13 3 -20 -3 -10 -8 -12 -6 -9 11 2 13 7
25 10 28 2 3 -1 12 -8 20 -10 13 -9 14 2 8 9 -6 12 -5 10 3 -7 20 -24 8 -24
-16 0 -12 -6 -27 -12 -33 -7 -5 -11 -7 -8 -3 3 3 -1 13 -9 22 -8 9 -15 19 -15
24 -1 4 -4 6 -8 5 -5 -2 -7 -7 -5 -11 1 -5 -2 -5 -8 -2 -8 5 -7 12 2 23 16 19
18 42 3 41 -5 0 -9 -6 -7 -13 1 -7 -8 -21 -20 -32 -23 -19 -23 -19 -5 2 26 32
20 40 -10 13 l-28 -24 21 25 c18 22 21 36 15 81 0 5 -5 8 -10 5 -5 -3 -7 -19
-5 -35 2 -19 -3 -34 -16 -46 -11 -10 -17 -22 -13 -28 4 -6 1 -7 -6 -3 -9 6 -9
12 3 25 9 10 13 21 9 26 -5 4 -2 5 5 1 12 -7 17 6 5 17 -8 9 -34 -13 -28 -23
3 -4 -3 -14 -13 -21 -15 -12 -16 -12 -5 2 7 9 11 18 8 21 -3 3 1 11 9 17 11 9
12 18 5 34 -7 15 -7 30 1 47 10 24 10 24 5 -5 -4 -20 0 -37 11 -50 13 -16 15
-17 10 -3 -3 10 -1 20 5 23 5 4 6 12 2 18 -14 21 -11 64 4 64 9 0 10 -4 3 -11
-16 -16 -11 -30 6 -15 9 7 21 14 28 15 14 2 19 -33 6 -41 -5 -3 -5 -16 2 -30
6 -13 15 -22 20 -19 5 3 4 12 -2 19 -8 9 -8 20 -2 32 5 10 8 26 7 35 -2 10 1
20 6 24 14 8 0 26 -14 18 -7 -4 -4 1 5 12 17 17 17 19 0 38 -17 21 -17 21 5 2
18 -15 20 -22 12 -33 -11 -12 -5 -18 16 -13 5 1 1 -7 -8 -18 -12 -13 -15 -22
-8 -27 7 -4 5 -14 -5 -31 -9 -13 -14 -27 -12 -30 9 -9 40 47 34 62 -4 9 -2 12
5 8 6 -3 9 -14 6 -23 -2 -10 1 -25 8 -35 11 -14 14 -14 18 -2 3 8 3 17 -1 19
-4 2 -1 2 6 0 8 -1 12 3 9 9 -2 7 -9 12 -14 11 -5 -1 -10 4 -10 12 0 8 4 12 8
10 4 -3 10 2 13 10 3 8 9 15 13 14 20 -3 27 2 13 11 -11 7 -11 10 -2 10 7 0
10 5 7 10 -4 6 -10 8 -14 6 -4 -3 -8 1 -8 9 0 13 3 13 17 0 9 -8 21 -12 25 -8
5 5 4 1 -3 -9 -9 -11 -10 -18 -2 -23 5 -3 10 0 10 7 0 9 3 9 10 -2 5 -9 6 -18
0 -24 -5 -5 -5 -16 -1 -25 9 -16 11 -23 11 -42 0 -5 4 -8 9 -5 8 5 8 34 1 44
-2 1 -4 14 -5 30 -1 15 -5 37 -8 50 -4 15 -2 20 5 16 8 -5 9 -1 4 12 -6 15 -5
17 5 7 10 -10 10 -16 1 -25 -8 -8 -8 -17 -1 -30 6 -10 7 -29 3 -41 -6 -19 -5
-20 9 -9 16 13 17 28 4 49 -4 7 -4 21 1 30 5 10 8 26 7 36 -2 9 1 15 5 12 9
-6 7 -27 -6 -59 -6 -15 -4 -17 6 -11 8 5 11 4 7 -2 -4 -6 1 -17 10 -24 14 -12
15 -11 10 11 -4 14 -4 19 -1 12 3 -6 10 -9 15 -6 6 3 6 11 -2 20 -6 7 -16 11
-21 8 -6 -4 -3 5 7 19 9 14 12 28 7 31 -10 6 -9 86 1 86 2 0 3 -18 2 -40z
m-274 17 c-6 -8 -7 -18 -3 -22 4 -5 1 -5 -6 -1 -10 6 -10 11 -1 22 6 8 14 14
16 14 3 0 0 -6 -6 -13z m175 -2 c-1 -8 -5 -17 -8 -21 -5 -4 -4 16 1 34 3 9 9
-1 7 -13z m70 -19 c0 -14 -3 -23 -7 -20 -6 3 -6 22 0 42 3 10 7 -2 7 -22z
m-31 -25 c3 -5 2 -12 -3 -15 -5 -3 -9 1 -9 9 0 17 3 19 12 6z m-345 -5 c0 -2
-8 -10 -17 -17 -16 -13 -17 -12 -4 4 13 16 21 21 21 13z m603 -19 c3 -8 -1
-14 -8 -14 -7 0 -11 6 -8 14 3 7 6 13 8 13 2 0 5 -6 8 -13z m-408 -5 c-3 -3 0
-11 6 -19 17 -20 5 -16 -14 5 -15 16 -15 19 -2 19 8 0 13 -3 10 -5z m95 2 c0
-8 -19 -13 -24 -6 -3 5 1 9 9 9 8 0 15 -2 15 -3z m-40 -8 c0 -2 -8 -10 -17
-17 -16 -13 -17 -12 -4 4 13 16 21 21 21 13z m-236 -24 c3 -5 -1 -9 -9 -9 -8
0 -12 4 -9 9 3 4 7 8 9 8 2 0 6 -4 9 -8z m145 -6 c9 -10 7 -17 -6 -27 -16 -12
-17 -12 -6 2 10 12 10 18 1 27 -7 7 -9 12 -6 12 3 0 11 -6 17 -14z m88 -3 c-4
-3 -1 -13 6 -22 11 -14 10 -15 -7 -1 -18 14 -19 13 -13 -2 3 -10 3 -20 -2 -22
-11 -7 -10 27 2 42 5 6 12 12 15 12 3 0 2 -3 -1 -7z m-227 -19 c0 -8 -19 -13
-24 -6 -3 5 1 9 9 9 8 0 15 -2 15 -3z m63 -16 c-6 -7 -9 -21 -8 -31 2 -9 -1
-15 -6 -11 -5 3 -9 0 -9 -7 0 -7 -3 -9 -6 -6 -4 4 -1 13 6 22 7 8 9 15 5 15
-4 0 -2 7 5 15 15 18 27 20 13 3z m44 -5 c0 -9 -4 -10 -14 -2 -7 6 -13 12 -13
14 0 1 6 2 13 2 8 0 14 -6 14 -14z m-85 -26 c-13 -18 -8 -42 8 -39 10 2 11 0
2 -11 -7 -8 -9 -16 -6 -19 3 -3 1 -9 -4 -12 -6 -3 -9 2 -7 11 1 10 0 23 -4 28
-10 17 -10 35 0 41 5 3 6 10 3 16 -4 7 -2 8 5 4 7 -5 9 -12 3 -19z m-39 -11
c3 4 4 -6 1 -21 -3 -15 -1 -24 5 -21 10 7 9 -21 -2 -29 -4 -3 -5 -2 -2 2 3 3
0 12 -7 20 -6 7 -8 16 -4 20 3 3 -2 16 -11 27 -14 15 -14 18 -2 8 9 -6 19 -9
22 -6z m-26 -33 c-4 -3 -2 -12 4 -19 7 -8 6 -14 -2 -20 -7 -4 -9 -3 -5 4 3 6
2 13 -4 17 -10 6 -5 25 7 25 4 0 3 -3 0 -7z m-38 -67 c9 -11 9 -16 -1 -22 -7
-4 -10 -4 -6 1 4 4 3 14 -3 22 -6 7 -9 13 -6 13 2 0 10 -6 16 -14z m76 5 c3
-5 2 -12 -3 -15 -5 -3 -9 1 -9 9 0 17 3 19 12 6z m-35 -25 c0 -2 -8 -10 -17
-17 -16 -13 -17 -12 -4 4 13 16 21 21 21 13z m550 0 c0 -2 -7 -7 -16 -10 -8
-3 -12 -2 -9 4 6 10 25 14 25 6z m-497 -31 c-7 -21 -12 -19 -10 4 0 11 5 18 9
15 4 -3 5 -11 1 -19z m492 -34 c3 -5 2 -12 -3 -15 -5 -3 -9 1 -9 9 0 17 3 19
12 6z m-180 -140 c3 -5 2 -12 -3 -15 -5 -3 -9 1 -9 9 0 17 3 19 12 6z m82 -20
c0 -11 -5 -18 -9 -15 -4 3 -5 11 -1 19 7 21 12 19 10 -4z m133 -52 c0 -6 -4
-7 -10 -4 -5 3 -10 11 -10 16 0 6 5 7 10 4 6 -3 10 -11 10 -16z m-6 -389 c0
-173 -3 -235 -12 -238 -13 -4 -13 -1 -14 258 0 225 0 222 14 218 9 -3 12 -64
12 -238z m98 -373 c29 -5 32 -16 4 -13 -21 3 -24 1 -15 -10 6 -8 15 -12 19 -9
5 3 11 1 15 -4 3 -6 -6 -8 -21 -5 -25 5 -26 3 -13 -12 12 -15 12 -17 0 -9 -11
6 -13 4 -8 -9 5 -11 3 -15 -4 -10 -7 4 -43 8 -80 9 -76 2 -78 3 -84 34 -8 42
1 46 88 43 45 -1 90 -3 99 -5z m-477 -66 c3 -5 2 -12 -3 -15 -5 -3 -9 1 -9 9
0 17 3 19 12 6z m-88 -66 c0 -8 -4 -12 -9 -9 -5 3 -6 10 -3 15 9 13 12 11 12
-6z m-31 -27 c3 -4 -1 -5 -10 -4 -8 1 -18 5 -22 8 -3 4 1 5 10 4 8 -1 18 -5
22 -8z m26 -44 c-5 -26 -6 -26 -18 1 -9 19 -8 22 5 20 10 -1 15 -10 13 -21z
m988 -3 c0 -10 -22 -31 -32 -31 -9 0 -11 34 -2 43 7 7 34 -2 34 -12z m-610
-26 c0 -2 -6 -8 -13 -14 -10 -8 -14 -7 -14 2 0 8 6 14 14 14 7 0 13 -1 13 -2z
m560 -26 c0 -5 -4 -7 -10 -4 -5 3 -10 1 -10 -6 0 -7 -3 -10 -6 -6 -8 7 4 27
17 27 5 0 9 -5 9 -11z m-535 -21 c4 -3 2 -9 -3 -12 -5 -3 -15 1 -21 8 -10 11
-9 14 3 12 9 -1 18 -5 21 -8z m-201 -50 c-4 -6 -10 -5 -15 3 -14 22 -10 33 6
19 8 -7 12 -17 9 -22z"/>
<path d="M1612 2024 c-1 -14 2 -23 7 -20 5 4 8 13 7 21 -4 25 -12 25 -14 -1z"/>
<path d="M1615 1888 c3 -31 0 -50 -9 -58 -11 -9 -14 -35 -6 -47 8 -11 2 -54
-9 -67 -8 -9 -9 -16 -3 -16 6 0 12 6 15 13 3 6 4 2 4 -10 -1 -12 -5 -19 -9
-17 -16 10 -29 -7 -17 -22 6 -8 8 -14 4 -14 -5 0 0 -8 9 -19 27 -30 30 -68 6
-76 -16 -5 -18 -10 -10 -20 8 -10 7 -16 -7 -24 -17 -10 -17 -10 0 -11 16 0 21
10 18 36 -2 16 26 25 32 11 2 -7 3 -32 1 -55 -2 -37 0 -41 12 -31 10 8 11 15
4 24 -8 9 -8 15 0 20 7 4 7 12 0 24 -5 10 -7 21 -4 23 3 3 7 18 10 33 4 24 3
26 -10 16 -22 -18 -32 6 -11 29 11 12 13 20 5 25 -5 3 -8 10 -5 15 3 4 -2 11
-10 14 -13 4 -14 10 -5 26 6 11 8 20 4 20 -3 0 -1 6 5 14 8 9 8 16 2 20 -5 4
-8 15 -6 26 2 11 -1 22 -6 26 -6 4 -4 13 6 24 11 12 13 20 5 25 -6 4 -8 14 -6
23 3 10 1 24 -4 32 -7 10 -8 1 -5 -32z m1 -94 c1 -9 0 -13 -4 -10 -3 4 -7 14
-8 22 -1 9 0 13 4 10 3 -4 7 -14 8 -22z m1 -46 c-3 -8 -6 -5 -6 6 -1 11 2 17
5 13 3 -3 4 -12 1 -19z m-7 -78 c1 12 3 11 11 -3 12 -21 3 -56 -10 -41 -5 5
-12 20 -16 34 -5 19 -4 21 4 10 10 -13 11 -13 11 0z m28 -105 c-3 -3 -9 2 -12
12 -6 14 -5 15 5 6 7 -7 10 -15 7 -18z"/>
<path d="M1611 1644 c0 -11 3 -14 6 -6 3 7 2 16 -1 19 -3 4 -6 -2 -5 -13z"/>
<path d="M1630 1416 c0 -15 4 -25 9 -22 10 7 9 31 -2 42 -4 4 -7 -5 -7 -20z"/>
<path d="M1630 1306 c0 -15 4 -25 9 -22 10 7 9 31 -2 42 -4 4 -7 -5 -7 -20z"/>
<path d="M1344 1619 c-2 -4 0 -10 4 -13 5 -3 7 -18 4 -32 -3 -17 -1 -25 5 -21
6 4 10 -3 9 -16 -1 -12 2 -28 7 -34 5 -7 7 -19 4 -28 -4 -8 -2 -17 3 -20 6 -4
11 -1 11 4 1 6 2 17 3 24 1 6 -1 17 -5 22 -3 6 -7 17 -7 25 -1 22 -11 62 -17
68 -2 3 0 10 5 17 7 8 5 12 -6 12 -8 0 -17 -4 -20 -8z"/>
<path d="M1433 1623 c4 -6 1 -16 -7 -22 -8 -7 -13 -20 -11 -29 1 -9 -4 -25
-13 -35 -13 -14 -13 -20 -2 -30 10 -10 12 -9 7 5 -3 10 -3 20 2 22 11 7 10
-27 -2 -41 -5 -7 -7 -13 -3 -13 4 0 -1 -14 -9 -31 -20 -38 -14 -49 9 -14 9 14
14 25 11 25 -3 0 1 13 9 29 9 16 12 32 8 36 -4 5 -1 5 5 1 10 -6 10 -13 0 -34
-12 -24 -15 -47 -7 -54 2 -2 4 -18 4 -35 1 -18 5 -35 8 -39 4 -3 4 -13 1 -22
-5 -14 -3 -14 15 2 25 22 27 27 10 24 -7 -2 -13 11 -15 31 -2 19 -5 37 -8 39
-3 3 0 11 6 18 7 8 7 14 -1 19 -8 5 -8 11 0 21 9 10 7 19 -9 40 -17 22 -19 30
-9 41 16 20 19 41 6 50 -6 3 -8 1 -5 -4z"/>
<path d="M1317 1606 c-3 -7 -1 -18 5 -24 7 -7 5 -17 -6 -33 -11 -16 -12 -26
-5 -35 5 -6 9 -16 8 -20 -3 -20 2 -35 10 -29 10 5 8 26 -4 56 -3 10 -2 20 4
24 7 4 8 0 4 -11 -5 -13 -3 -15 7 -9 9 5 11 4 6 -4 -4 -6 -3 -18 4 -26 7 -8 7
-15 1 -19 -14 -9 -2 -37 13 -29 8 4 8 2 -1 -7 -6 -7 -9 -18 -7 -25 3 -7 1 -16
-5 -20 -7 -4 -8 1 -4 12 5 14 3 16 -7 6 -7 -6 -10 -19 -6 -29 6 -16 8 -16 23
-1 18 18 26 64 13 72 -5 3 -7 12 -3 20 3 9 0 21 -6 29 -6 7 -8 16 -4 19 3 4 0
13 -7 22 -7 8 -10 24 -7 35 6 23 -18 48 -26 26z"/>
<path d="M1456 1611 c-4 -5 -2 -12 3 -15 5 -4 12 -2 15 3 4 5 2 12 -3 15 -5 4
-12 2 -15 -3z"/>
<path d="M1178 1573 c-15 -17 -15 -20 2 -41 10 -12 17 -32 15 -43 -3 -17 -1
-19 10 -9 10 8 15 8 20 -1 6 -8 10 -7 16 2 14 22 10 33 -5 20 -12 -10 -18 -7
-30 17 -11 22 -12 32 -3 41 7 7 8 14 1 21 -7 7 -16 5 -26 -7z"/>
<path d="M1253 1541 c-8 -12 -8 -22 -1 -29 7 -7 6 -17 -3 -33 -17 -31 -19 -48
-8 -55 5 -3 7 -9 4 -14 -3 -4 3 -14 12 -21 14 -12 15 -11 9 9 -6 16 -2 29 10
43 14 16 15 22 4 32 -10 10 -12 9 -7 -5 3 -10 3 -19 -1 -22 -4 -3 -8 4 -9 14
-1 11 2 22 8 25 5 4 5 14 -2 26 -6 12 -8 23 -6 26 3 2 8 -5 12 -16 4 -13 11
-18 18 -14 8 4 7 1 -1 -9 -9 -12 -10 -18 -2 -23 6 -4 9 -13 6 -21 -3 -7 -1
-16 5 -19 10 -7 6 -46 -7 -67 -6 -9 -3 -9 9 1 9 7 17 19 17 26 0 7 6 18 14 25
8 6 12 18 9 26 -7 20 -23 7 -16 -14 3 -9 3 -14 -1 -11 -6 6 -16 39 -19 69 -1
9 -11 28 -22 43 -19 26 -21 26 -32 8z"/>
<path d="M1393 1411 c-14 -18 -18 -32 -13 -41 4 -7 7 -21 5 -31 -2 -9 9 -29
25 -44 28 -27 28 -27 35 -5 4 11 1 27 -5 35 -6 8 -9 19 -6 24 4 5 3 12 -2 15
-5 3 -7 19 -6 35 3 41 -6 44 -33 12z m24 -16 c0 -8 -4 -12 -9 -9 -11 7 -10 -3
3 -25 9 -13 9 -22 0 -37 -11 -17 -11 -17 -6 4 4 13 1 29 -5 37 -10 12 -10 18
0 30 15 19 17 19 17 0z m18 -84 c3 -5 2 -12 -3 -15 -5 -3 -9 1 -9 9 0 17 3 19
12 6z"/>
<path d="M2103 225 c0 -8 4 -12 9 -9 5 3 6 10 3 15 -9 13 -12 11 -12 -6z"/>
<path d="M1164 193 c4 -8 2 -13 -6 -13 -7 0 -2 -7 11 -16 19 -14 25 -14 32 -3
11 18 11 26 -1 34 -5 3 -10 1 -10 -6 0 -8 -5 -7 -17 2 -11 10 -14 10 -9 2z"/>
<path d="M1216 174 c-9 -24 -6 -41 4 -19 8 19 9 19 9 -3 1 -13 5 -20 11 -17 6
3 10 2 10 -2 0 -14 38 -34 45 -23 4 6 1 9 -6 8 -6 -2 -14 3 -16 10 -3 8 1 10
14 5 10 -3 15 -3 11 2 -4 4 -18 8 -30 9 -15 1 -23 7 -22 18 2 22 -23 31 -30
12z"/>
<path d="M1466 58 c3 -5 10 -6 15 -3 13 9 11 12 -6 12 -8 0 -12 -4 -9 -9z"/>
<path d="M1775 60 c-3 -5 -1 -10 4 -10 6 0 11 5 11 10 0 6 -2 10 -4 10 -3 0
-8 -4 -11 -10z"/>
<path d="M1546 51 c8 -8 54 -7 54 1 0 5 -13 7 -30 6 -16 -1 -27 -4 -24 -7z"/>
<path d="M1696 49 c4 -8 30 -6 38 2 3 3 -5 5 -19 5 -13 0 -22 -3 -19 -7z"/>
</g>
</svg>
